<svg width="25" height="24" viewBox="0 0 25 24" fill="none" xmlns="http://www.w3.org/2000/svg">
<path d="M12.5 21C12.3684 21.0008 12.2379 20.9756 12.1161 20.9258C11.9943 20.876 11.8834 20.8027 11.79 20.71L4.01999 12.93C3.04536 11.9452 2.49866 10.6156 2.49866 9.23002C2.49866 7.84445 3.04536 6.51484 4.01999 5.53002C5.00226 4.55053 6.33283 4.00049 7.71999 4.00049C9.10716 4.00049 10.4377 4.55053 11.42 5.53002L12.5 6.61002L13.58 5.53002C14.5623 4.55053 15.8928 4.00049 17.28 4.00049C18.6672 4.00049 19.9977 4.55053 20.98 5.53002C21.9546 6.51484 22.5013 7.84445 22.5013 9.23002C22.5013 10.6156 21.9546 11.9452 20.98 12.93L13.21 20.71C13.1166 20.8027 13.0057 20.876 12.8839 20.9258C12.7621 20.9756 12.6316 21.0008 12.5 21ZM7.71999 6.00002C7.29667 5.9981 6.87717 6.0802 6.4858 6.24155C6.09443 6.40291 5.73897 6.64031 5.43999 6.94002C4.83605 7.54714 4.49703 8.36866 4.49703 9.22502C4.49703 10.0814 4.83605 10.9029 5.43999 11.51L12.5 18.58L19.56 11.51C20.1639 10.9029 20.503 10.0814 20.503 9.22502C20.503 8.36866 20.1639 7.54714 19.56 6.94002C18.9437 6.35773 18.1279 6.03331 17.28 6.03331C16.4321 6.03331 15.6163 6.35773 15 6.94002L13.21 8.74002C13.117 8.83375 13.0064 8.90814 12.8846 8.95891C12.7627 9.00968 12.632 9.03581 12.5 9.03581C12.368 9.03581 12.2373 9.00968 12.1154 8.95891C11.9936 8.90814 11.883 8.83375 11.79 8.74002L9.99999 6.94002C9.70102 6.64031 9.34556 6.40291 8.95419 6.24155C8.56282 6.0802 8.14332 5.9981 7.71999 6.00002Z" fill="white"/>
</svg>
