<svg width="12" height="12" viewBox="0 0 12 12" fill="none" xmlns="http://www.w3.org/2000/svg">
<path d="M9.33412 11.712C9.23796 11.7124 9.14312 11.6897 9.05753 11.6459L5.99098 10.0405L2.92443 11.6459C2.82485 11.6983 2.71258 11.7216 2.60038 11.7134C2.48818 11.7051 2.38055 11.6655 2.28973 11.5991C2.1989 11.5327 2.12853 11.4422 2.08661 11.3378C2.04468 11.2334 2.03289 11.1193 2.05256 11.0085L2.65385 7.6233L0.176555 5.21816C0.0992646 5.14103 0.0444358 5.04431 0.0179529 4.93838C-0.00853001 4.83245 -0.00566726 4.72131 0.0262339 4.61688C0.0610844 4.51002 0.125191 4.41506 0.21128 4.34279C0.297368 4.27052 0.40199 4.22382 0.513275 4.20801L3.9406 3.70894L5.44982 0.624347C5.49906 0.522687 5.57594 0.436952 5.67164 0.376963C5.76735 0.316973 5.87803 0.285156 5.99098 0.285156C6.10394 0.285156 6.21461 0.316973 6.31032 0.376963C6.40602 0.436952 6.4829 0.522687 6.53214 0.624347L8.0594 3.70293L11.4867 4.20199C11.598 4.21781 11.7026 4.2645 11.7887 4.33678C11.8748 4.40905 11.9389 4.504 11.9738 4.61087C12.0057 4.71529 12.0085 4.82644 11.982 4.93237C11.9556 5.0383 11.9007 5.13502 11.8234 5.21215L9.34615 7.61729L9.94744 11.0025C9.9689 11.1153 9.95766 11.2318 9.91504 11.3383C9.87243 11.4449 9.80021 11.537 9.70692 11.6038C9.59804 11.6801 9.46694 11.7182 9.33412 11.712ZM5.99098 8.76575C6.08737 8.76331 6.18271 8.78611 6.26757 8.83189L8.53442 10.0345L8.10149 7.50305C8.08469 7.40639 8.0918 7.30709 8.1222 7.21381C8.15259 7.12053 8.20535 7.03611 8.27586 6.9679L10.0797 5.20614L7.55432 4.83334C7.46171 4.8147 7.3748 4.77449 7.30063 4.71599C7.22646 4.65749 7.16712 4.58234 7.12741 4.49662L5.99098 2.2418L4.85455 4.49662C4.81105 4.58303 4.74734 4.65766 4.66883 4.71419C4.59032 4.77072 4.49933 4.80746 4.40359 4.82132L1.87819 5.19411L3.68205 6.95588C3.75256 7.02408 3.80532 7.10851 3.83571 7.20179C3.86611 7.29507 3.87322 7.39436 3.85642 7.49102L3.42349 9.99237L5.69034 8.7898C5.78639 8.75409 5.89047 8.74576 5.99098 8.76575Z" fill="#0063F7"/>
</svg>
